PathFileType	4	(X/Y/Z)	D:\TRACE\v60_Jaco2_6-2-23\JustArmDRS_Motion2_3-v60.trc
DataRate	CameraRate	NumFrames	NumMarkers	Units	OrigDataRate	OrigDataStartFrame	OrigNumFrames
100.00	100.00	      31	9	mm	100.00	6098	      6969
Frame#	Time	front left toe			Front right toe			aft left toe			aft right toe			Arm			FL body			FR body			AL Body			AR Body			
		X1	Y1	Z1	X2	Y2	Z2	X3	Y3	Z3	X4	Y4	Z4	X5	Y5	Z5	X6	Y6	Z6	X7	Y7	Z7	X8	Y8	Z8	X9	Y9	Z9	

6098	60.970	-153.13530	30.38673	-157.86977	254.53435	29.62993	-202.36043	-86.01018	-4.46574	444.71204	315.99139	-1.73293	432.43552	143.05878	1082.32373	-661.71649	-40.02734	581.79785	-304.18228	119.18637	578.28204	-321.98352	65.21606	579.40924	635.18140	221.81665	570.54700	618.90930	
6099	60.980	-152.61909	30.68432	-157.35838	255.01886	30.04503	-202.17075	-85.50443	-5.19705	444.94315	316.01227	-2.66222	432.63916	144.81308	1083.95361	-660.10614	-38.57793	582.32465	-303.36111	120.70972	578.87183	-321.57126	66.35542	578.47089	635.86346	222.45805	569.50690	619.96997	
6100	60.990	-152.22466	30.96736	-156.88414	255.80008	30.65617	-201.76236	-84.81643	-6.01935	444.98965	317.32681	-3.29546	433.13632	145.88756	1085.59302	-658.60376	-38.02138	583.12469	-302.79758	121.47050	579.51062	-321.30576	67.35835	577.22644	635.57471	223.76001	568.50916	620.61066	
6101	61.000	-151.69186	31.59835	-156.50952	256.10361	30.95886	-201.45609	-84.16442	-7.03797	445.48193	317.62350	-4.16283	433.44482	147.29930	1087.33350	-657.03687	-37.10427	583.79449	-302.22403	122.54114	580.18097	-320.98737	68.72987	576.59552	637.12140	225.50447	567.36725	620.94366	
6102	61.010	-151.31912	32.00533	-156.36235	256.34866	31.16378	-201.10051	-83.50120	-7.87755	445.63763	318.10498	-4.98827	433.58716	148.77289	1089.01904	-655.34955	-35.63272	584.26959	-301.50632	123.65346	580.36383	-319.83942	70.00220	575.65790	637.96216	226.58321	566.41663	621.52588	
6103	61.020	-150.93785	32.27124	-156.12457	256.71057	31.49196	-200.67612	-84.13943	-7.80576	445.64236	318.29556	-5.94055	433.80304	149.96547	1090.94617	-653.68573	-34.82066	584.89154	-300.95068	125.16298	581.05115	-319.30768	70.90395	574.83942	638.46295	227.46109	565.66199	622.23785	
6104	61.030	-150.78091	32.80251	-155.67102	257.15460	31.76073	-200.34354	-84.03594	-8.33944	445.69617	318.59143	-6.51809	433.95230	151.35890	1092.53052	-651.99518	-33.93147	585.46185	-300.00320	125.33989	581.53693	-318.73703	71.55057	573.93073	638.70862	228.23404	564.32367	622.99890	
6105	61.040	-150.47775	33.25572	-155.32387	257.47540	32.18061	-200.08945	-83.83128	-8.99376	445.73755	318.90381	-7.52401	434.10175	152.17313	1094.40601	-650.67114	-33.20211	586.24078	-299.38474	126.57124	582.21283	-317.87613	72.84415	572.94043	639.81128	229.01248	563.28125	623.53949	
6106	61.050	-150.16209	33.64992	-155.03940	257.85303	32.60527	-199.78569	-83.48797	-9.67281	446.07742	318.95398	-8.18557	434.34192	153.79666	1095.82910	-649.38110	-32.44846	586.85028	-298.76318	127.21100	582.62067	-317.29669	74.17368	571.99036	639.99585	230.21170	562.60388	624.06140	
6107	61.060	-149.85370	33.87640	-154.85191	257.85342	32.88580	-199.61328	-83.13619	-10.34006	446.31180	319.35977	-8.91777	434.51968	155.40437	1097.77625	-648.21387	-31.26854	587.56073	-298.30484	128.16202	583.26031	-316.84763	74.81334	571.29236	641.03320	231.45605	561.58600	624.64191	
6108	61.070	-149.69098	34.36700	-154.66945	257.96750	33.22428	-199.48553	-83.14589	-10.83017	446.56894	319.47461	-9.65187	434.71497	156.28261	1099.36755	-646.82556	-30.57996	587.86475	-297.70459	128.80261	584.06506	-316.48660	75.55018	570.39673	641.58282	232.19762	560.73322	625.26624	
6109	61.080	-149.49780	34.95526	-154.36441	258.24512	33.56650	-199.22728	-83.10876	-11.29507	446.89655	319.67737	-10.09024	434.90427	157.21994	1101.31433	-645.74042	-29.68722	588.61053	-296.90384	129.15793	584.18762	-315.06113	76.51850	569.59607	642.23181	232.53842	559.73407	626.43811	
6110	61.090	-149.64946	35.31059	-154.14594	258.29932	33.75916	-199.00542	-84.47558	-10.89523	446.76672	319.73108	-10.83561	435.28012	158.47945	1103.09973	-644.47009	-29.07238	589.16528	-296.34680	129.72766	584.86444	-314.56509	77.10086	568.72430	642.74591	233.76414	558.91394	626.54077	
6111	61.100	-149.61464	35.49927	-154.06906	258.09616	33.87654	-198.66980	-84.05766	-11.58533	446.90332	319.98462	-11.29140	435.41245	159.54367	1105.18298	-643.58063	-28.52746	589.75543	-295.90298	130.31116	585.19550	-313.75714	77.84677	567.83185	643.37451	234.02505	557.97382	627.00494	
6112	61.110	-149.60703	35.76216	-153.91769	257.97919	34.13599	-198.48091	-83.80554	-12.29797	447.09930	319.91260	-12.14116	435.64319	160.57336	1107.16101	-642.48346	-27.90074	590.56256	-295.12866	131.05310	586.00018	-313.50751	78.85723	566.83569	643.62122	235.02472	557.30219	628.03400	
6113	61.120	-149.50191	36.07351	-153.67325	258.26276	34.59130	-198.12297	-83.59188	-13.11072	447.31058	319.99927	-12.61471	435.93253	161.40714	1109.10815	-641.46191	-27.24920	590.90491	-294.59601	131.63007	586.34540	-312.84747	79.19540	566.06293	644.53638	235.84747	556.13867	628.30017	
6114	61.130	-149.49332	36.44495	-153.28821	258.39096	34.89003	-197.83168	-83.38232	-13.77509	447.50027	320.11981	-13.14782	436.07324	162.60413	1111.19604	-640.37048	-27.11580	591.68182	-294.12280	132.75797	586.86353	-312.52081	79.82355	565.22498	644.99963	236.38811	555.61346	629.15161	
6115	61.140	-149.63098	36.84402	-153.00763	258.31903	35.15310	-197.61806	-83.23766	-14.32994	447.49762	320.11465	-13.87648	436.27112	163.44124	1113.11975	-639.74615	-26.43802	591.92731	-293.24228	132.34859	587.47565	-311.73196	80.53858	564.40308	645.72809	237.12349	554.45319	629.56262	
6116	61.150	-149.72424	37.13953	-152.82932	258.15054	35.42486	-197.55829	-83.43390	-14.74307	447.74323	319.83643	-14.40191	436.25461	164.21486	1114.98621	-639.23340	-25.99489	592.63995	-292.63159	132.78931	588.24347	-312.18460	80.81711	563.59491	646.22174	238.12846	553.60175	629.75745	
6117	61.160	-149.73508	37.22387	-152.77350	257.62601	35.49808	-197.44574	-83.72016	-15.23243	448.13727	319.34763	-14.89282	436.28891	164.80299	1117.06458	-638.43915	-26.00906	593.35364	-292.11819	133.35791	588.71881	-310.88330	81.65939	562.72748	646.26660	237.85387	552.50427	630.27234	
6118	61.170	-150.17401	37.61908	-152.47124	257.05438	35.62637	-197.08710	-83.94247	-15.50257	448.29251	318.72546	-15.55531	436.51895	165.78200	1119.08728	-637.43219	-25.47359	593.62817	-291.66998	133.85637	589.20477	-310.32559	82.03113	561.91760	647.32635	238.08994	551.53766	630.67078	
6119	61.180	-150.54553	37.92890	-152.19197	256.73892	35.87203	-196.94806	-84.33539	-15.93744	448.30411	318.39902	-16.25100	436.54672	166.99693	1121.23376	-636.76019	-25.43138	594.57739	-290.90427	133.96353	589.70270	-309.88116	82.39610	560.98602	647.79578	238.85056	551.00928	631.98425	
6120	61.190	-150.71471	38.01167	-151.98520	256.51904	36.22635	-196.89584	-84.48941	-16.47443	448.62906	318.24268	-16.63984	436.69769	167.69739	1123.50330	-636.21051	-25.08046	594.84344	-290.46741	133.78615	590.36487	-310.04880	82.78697	560.19891	648.20526	239.04240	549.87177	631.74817	
6121	61.200	-150.86703	38.07334	-151.92221	256.42050	36.38913	-196.72273	-84.72182	-16.94758	448.66199	318.18781	-16.99339	436.76959	168.32491	1125.57373	-635.73578	-25.17236	595.29987	-289.90836	134.20076	590.58655	-308.85883	82.82329	559.50549	648.66302	239.37579	549.08801	632.04382	
6122	61.210	-151.13133	38.33195	-151.80396	256.15616	36.56691	-196.57669	-84.80478	-17.38414	448.81134	318.00500	-17.33201	436.91156	169.21133	1127.67554	-634.88007	-25.20435	595.85559	-289.61969	133.95752	590.79053	-307.95117	83.17182	558.69299	649.29578	239.69150	548.83478	633.31244	
6123	61.220	-151.53166	38.57795	-151.68819	255.71112	36.71627	-196.47203	-85.05358	-17.66953	448.83948	317.50061	-17.73245	436.93326	169.95650	1129.48108	-634.30872	-24.60732	596.19305	-288.84601	134.26096	591.14581	-307.61938	83.68899	558.16113	649.32819	239.97365	547.90393	633.45752	
6124	61.230	-152.02287	38.84244	-151.62877	255.39452	36.81794	-196.36725	-85.46740	-17.95530	448.98444	317.31146	-17.99373	437.06705	170.51962	1131.58813	-634.02576	-24.87700	596.54028	-288.38654	134.35323	591.55664	-306.75720	83.82246	557.52179	649.59399	239.87532	547.16119	633.22534	
6125	61.240	-152.73494	39.05741	-151.47171	255.01222	36.84897	-196.07701	-85.85641	-18.29099	449.13931	316.71896	-18.54262	437.13513	171.11748	1133.51062	-633.86041	-24.79110	596.85986	-288.09348	134.59323	592.30585	-307.23767	83.68806	557.07959	650.27386	239.92175	546.66919	633.80414	
6126	61.250	-153.16321	39.24051	-151.31140	254.28865	36.96128	-195.94894	-86.20990	-18.39665	449.20309	316.10593	-18.92346	437.23434	171.56409	1135.23901	-633.70728	-24.85097	597.38068	-287.60229	134.61507	592.47974	-306.76627	84.02917	556.72980	651.41168	239.97957	546.38922	634.04480	
6127	61.260	-153.53459	39.46780	-151.19609	253.82898	37.18921	-195.88617	-86.53608	-18.63211	449.26324	315.68356	-19.15733	437.45270	172.25281	1137.06934	-633.51196	-24.84933	597.73553	-287.35016	134.65828	592.66248	-306.32437	83.68488	556.20563	651.19934	240.15633	545.84167	634.44006	
6128	61.270	-153.80902	39.52073	-151.22249	253.51440	37.35453	-195.86452	-86.72285	-19.19503	449.46875	315.47067	-19.27488	437.73907	172.59044	1138.77869	-633.33588	-24.69993	597.95129	-287.08395	134.53040	593.05811	-305.89688	83.75308	555.59674	651.56299	240.19818	545.58887	635.57379	
